<svg xmlns="http://www.w3.org/2000/svg" xml:space="preserve" style="enable-background:new 0 0 200 7.5" viewBox="0 0 200 7.5">
  <path d="m102.368 3.712.99-.99.99.99-.99.99zM105.465 3.758l1.556-1.555 1.556 1.555-1.556 1.556zM109.783 3.748l.99-.99.99.99-.99.99zM113.26 3.635l1.67-1.432 1.432 1.67-1.67 1.432zM91.684 3.744l.99-.99.99.99-.99.99zM87.363 3.75l1.555-1.555 1.556 1.556-1.556 1.555zM83.892 3.76l.99-.99.99.99-.99.99zM79.57 3.645l1.67-1.432 1.432 1.67-1.67 1.432zM94.395 3.74l3.747-3.748 3.748 3.748-3.748 3.747z"/>
  <path d="m115.3 3.1 84.7.5v.3l-84.7.5zM80.5 4.4 0 3.9v-.3l80.5-.5z"/>
</svg>
