<svg aria-hidden="true" version="1.1" xmlns="http://www.w3.org/2000/svg" xmlns:xlink="http://www.w3.org/1999/xlink">
  <defs>
    <symbol id="logo" viewBox="0 0 146 213">
      <path
        d="M71.8 0 49 22.7 32.1 5.6v33.9L0 71.4v140h2V72.3l30.1-29.9v170.2H146V73.4L71.8 0zM34.1 10.5l13.5 13.6-13.5 13.4v-27zm52.4 200.1H58.7v-48.9h27.7v48.9zm57.5 0H88.5v-50.9H56.7v50.9H34.1V40.3L49 25.5l55.5 56.1v60.2h2v-61L50.4 24.1 71.8 2.8 144 74.2v136.4z" />
    </symbol>
    <symbol id="icon-smartphone" viewBox="0 0 20 32">
      <path
        d="M17 0h-14c-1.654 0-3 1.346-3 3v26c0 1.654 1.346 3 3 3h14c1.654 0 3-1.346 3-3v-26c0-1.654-1.346-3-3-3zM3 2h14c0.552 0 1 0.448 1 1v0 21h-16v-21c0-0.552 0.448-1 1-1v0zM17 30h-14c-0.552 0-1-0.448-1-1v0-3h16v3c0 0.552-0.448 1-1 1v0z">
      </path>
      <path
        d="M4.708 27.478c0.18 0.163 0.293 0.399 0.293 0.66s-0.113 0.497-0.292 0.659l-0.001 0.001c-0.186 0.17-0.435 0.275-0.708 0.275s-0.522-0.104-0.709-0.275l0.001 0.001c-0.18-0.163-0.293-0.399-0.293-0.66s0.113-0.497 0.292-0.659l0.001-0.001c0.186-0.17 0.435-0.275 0.708-0.275s0.522 0.104 0.709 0.275l-0.001-0.001z">
      </path>
    </symbol>
    <symbol id="decor" viewBox="0 0 200 8">
      <path
        d="m102.368 3.712.99-.99.99.99-.99.99zM105.465 3.758l1.556-1.555 1.556 1.555-1.556 1.556zM109.783 3.748l.99-.99.99.99-.99.99zM113.26 3.635l1.67-1.432 1.432 1.67-1.67 1.432zM91.684 3.744l.99-.99.99.99-.99.99zM87.363 3.75l1.555-1.555 1.556 1.556-1.556 1.555zM83.892 3.76l.99-.99.99.99-.99.99zM79.57 3.645l1.67-1.432 1.432 1.67-1.67 1.432zM94.395 3.74l3.747-3.748 3.748 3.748-3.748 3.747z" />
      <path d="m115.3 3.1 84.7.5v.3l-84.7.5zM80.5 4.4 0 3.9v-.3l80.5-.5z" />
    </symbol>
  </defs>
</svg>